<svg width="174" height="174" viewBox="0 0 174 174" fill="none" xmlns="http://www.w3.org/2000/svg">
<path d="M84.0157 5.9591C84.9822 3.34726 88.6762 3.34723 89.6427 5.9591L108.97 58.1896C110.084 61.2005 112.458 63.5745 115.469 64.6886L167.699 84.0157C170.311 84.9822 170.311 88.6762 167.699 89.6427L115.469 108.97C112.458 110.084 110.084 112.458 108.97 115.469L89.6427 167.699C88.6762 170.311 84.9822 170.311 84.0157 167.699L64.6886 115.469C63.5745 112.458 61.2005 110.084 58.1896 108.97L5.95911 89.6427C3.34727 88.6762 3.34724 84.9822 5.95911 84.0157L58.1896 64.6886C61.2005 63.5744 63.5745 61.2005 64.6886 58.1896L84.0157 5.9591Z" fill="white" stroke="white" stroke-width="8"/>
</svg>
